<svg width="16" height="16" viewBox="0 0 16 16" fill="none" xmlns="http://www.w3.org/2000/svg">
<path fill-rule="evenodd" clip-rule="evenodd" d="M4.99996 3.33333C4.44767 3.33333 3.99996 3.78105 3.99996 4.33333V11.6667C3.99996 12.219 4.44767 12.6667 4.99996 12.6667H8.66663C9.03482 12.6667 9.33329 12.9651 9.33329 13.3333C9.33329 13.7015 9.03482 14 8.66663 14H4.99996C3.71129 14 2.66663 12.9553 2.66663 11.6667V4.33333C2.66663 3.04467 3.71129 2 4.99996 2H8.66663C9.03482 2 9.33329 2.29848 9.33329 2.66667C9.33329 3.03486 9.03482 3.33333 8.66663 3.33333H4.99996Z" fill="white"/>
<path fill-rule="evenodd" clip-rule="evenodd" d="M10.2688 4.93607C10.5291 4.67572 10.9512 4.67572 11.2116 4.93607L13.8042 7.52866C14.0645 7.78901 14.0645 8.21112 13.8042 8.47147L11.2116 11.0641C10.9512 11.3244 10.5291 11.3244 10.2688 11.0641C10.0084 10.8037 10.0084 10.3816 10.2688 10.1213L12.39 8.00006L10.2688 5.87888C10.0084 5.61853 10.0084 5.19642 10.2688 4.93607Z" fill="white"/>
<path fill-rule="evenodd" clip-rule="evenodd" d="M5.99996 8C5.99996 7.63181 6.29844 7.33333 6.66663 7.33333H13.3333C13.7015 7.33333 14 7.63181 14 8C14 8.36819 13.7015 8.66667 13.3333 8.66667H6.66663C6.29844 8.66667 5.99996 8.36819 5.99996 8Z" fill="white"/>
</svg>
