<svg width="122" height="121" viewBox="0 0 122 121" fill="none" xmlns="http://www.w3.org/2000/svg">
<path d="M60.9942 4.90602L21.3932 15.5198C6.96206 19.3877 0.976302 29.7569 4.84276 44.1905L15.4427 83.7603C19.3092 98.1939 29.6763 104.18 44.1074 100.312L83.7084 89.6986C98.1396 85.8308 104.088 75.4717 100.221 61.0381L89.6212 21.4682C85.7548 7.03463 75.4254 1.03819 60.9942 4.90602Z" fill="url(#paint0_linear_1_55084)"/>
<g filter="url(#filter0_f_1_55084)">
<path d="M80.5071 56.763L73.3157 29.515C70.7072 19.6315 64.1787 15.1998 55.5945 17.4666L26.5209 25.1438C17.7959 27.4477 14.4175 34.4954 17.026 44.379L24.2174 71.627C26.8679 81.6698 33.241 85.9686 41.9659 83.6647L71.0396 75.9875C79.6237 73.7208 83.1577 66.8059 80.5071 56.763Z" fill="#C7CCCB"/>
</g>
<g filter="url(#filter1_b_1_55084)">
<mask id="path-3-inside-1_1_55084" fill="white">
<path d="M98.636 32.1445H57.6419C42.7031 32.1445 34.239 40.6108 34.239 55.5535V96.5193C34.239 111.462 42.7031 119.928 57.6419 119.928H98.636C113.575 119.928 122 111.462 122 96.5193V55.5535C122 40.6108 113.575 32.1445 98.636 32.1445Z"/>
</mask>
<path d="M98.636 32.1445H57.6419C42.7031 32.1445 34.239 40.6108 34.239 55.5535V96.5193C34.239 111.462 42.7031 119.928 57.6419 119.928H98.636C113.575 119.928 122 111.462 122 96.5193V55.5535C122 40.6108 113.575 32.1445 98.636 32.1445Z" fill="#DCDFDF" fill-opacity="0.35"/>
<path d="M98.636 33.1445C99.1883 33.1445 99.636 32.6968 99.636 32.1445C99.636 31.5922 99.1883 31.1445 98.636 31.1445V33.1445ZM98.636 31.1445C98.0837 31.1445 97.636 31.5922 97.636 32.1445C97.636 32.6968 98.0837 33.1445 98.636 33.1445V31.1445ZM98.636 31.1445H57.6419V33.1445H98.636V31.1445ZM57.6419 31.1445C49.9865 31.1445 43.8516 33.317 39.6312 37.5385C35.4109 41.7599 33.239 47.8963 33.239 55.5535H35.239C35.239 48.268 37.2992 42.6999 41.0456 38.9525C44.792 35.2052 50.3585 33.1445 57.6419 33.1445V31.1445ZM33.239 55.5535V96.5193H35.239V55.5535H33.239ZM33.239 96.5193C33.239 104.177 35.4109 110.313 39.6312 114.534C43.8516 118.756 49.9865 120.928 57.6419 120.928V118.928C50.3585 118.928 44.792 116.868 41.0456 113.12C37.2992 109.373 35.239 103.805 35.239 96.5193H33.239ZM57.6419 120.928H98.636V118.928H57.6419V120.928ZM98.636 120.928C106.291 120.928 112.417 118.756 116.628 114.533C120.839 110.312 123 104.175 123 96.5193H121C121 103.806 118.949 109.374 115.212 113.121C111.476 116.868 105.919 118.928 98.636 118.928V120.928ZM123 96.5193V55.5535H121V96.5193H123ZM123 55.5535C123 47.8976 120.839 41.7612 116.628 37.5394C112.417 33.3171 106.291 31.1445 98.636 31.1445V33.1445C105.919 33.1445 111.476 35.2051 115.212 38.9517C118.949 42.6986 121 48.2668 121 55.5535H123Z" fill="url(#paint1_linear_1_55084)" mask="url(#path-3-inside-1_1_55084)"/>
</g>
<g filter="url(#filter2_bd_1_55084)">
<path fill-rule="evenodd" clip-rule="evenodd" d="M74.5177 51.3582C76.1406 51.4008 77.5474 52.4798 77.9917 54.0227L87.3333 86.464L90.8954 78.8709C91.5038 77.5741 92.8187 76.7442 94.2652 76.7442H103.286C105.337 76.7442 107 78.3874 107 80.4144C107 82.4415 105.337 84.0847 103.286 84.0847H96.6374L89.8673 98.5159C89.2144 99.9078 87.7543 100.752 86.2065 100.631C84.6587 100.511 83.3499 99.4524 82.925 97.9768L74.09 67.2947L69.1258 81.6046C68.6111 83.0882 67.1993 84.0847 65.6122 84.0847H54.9999C52.9486 84.0847 51.2856 82.4415 51.2856 80.4144C51.2856 78.3874 52.9486 76.7442 54.9999 76.7442H62.959L70.9057 53.837C71.4321 52.3195 72.8949 51.3157 74.5177 51.3582Z" fill="url(#paint2_linear_1_55084)"/>
<path d="M87.2372 86.4917L87.3108 86.7473L87.4238 86.5065L90.9859 78.9134C91.5776 77.6521 92.857 76.8442 94.2652 76.8442H103.286C105.283 76.8442 106.9 78.4438 106.9 80.4144C106.9 82.3851 105.283 83.9847 103.286 83.9847H96.6374H96.5739L96.5469 84.0422L89.7768 98.4735C89.1418 99.8272 87.7211 100.649 86.2142 100.532C84.7075 100.415 83.4343 99.384 83.0211 97.9491L74.1861 67.267L74.0989 66.964L73.9955 67.2619L69.0313 81.5718C68.5308 83.0145 67.1573 83.9847 65.6122 83.9847H54.9999C53.0027 83.9847 51.3856 82.3851 51.3856 80.4144C51.3856 78.4438 53.0027 76.8442 54.9999 76.8442H62.959H63.0301L63.0534 76.777L71.0001 53.8698C71.5121 52.3941 72.9351 51.4168 74.5151 51.4582C76.095 51.4996 77.4636 52.55 77.8956 54.0504L87.2372 86.4917Z" stroke="url(#paint3_linear_1_55084)" stroke-opacity="0.5" stroke-width="0.2"/>
</g>
<defs>
<filter id="filter0_f_1_55084" x="0.166748" y="0.885254" width="97.2039" height="99.3872" filterUnits="userSpaceOnUse" color-interpolation-filters="sRGB">
<feFlood flood-opacity="0" result="BackgroundImageFix"/>
<feBlend mode="normal" in="SourceGraphic" in2="BackgroundImageFix" result="shape"/>
<feGaussianBlur stdDeviation="8" result="effect1_foregroundBlur_1_55084"/>
</filter>
<filter id="filter1_b_1_55084" x="10.239" y="8.14453" width="135.761" height="135.784" filterUnits="userSpaceOnUse" color-interpolation-filters="sRGB">
<feFlood flood-opacity="0" result="BackgroundImageFix"/>
<feGaussianBlur in="BackgroundImage" stdDeviation="12"/>
<feComposite in2="SourceAlpha" operator="in" result="effect1_backgroundBlur_1_55084"/>
<feBlend mode="normal" in="SourceGraphic" in2="effect1_backgroundBlur_1_55084" result="shape"/>
</filter>
<filter id="filter2_bd_1_55084" x="36.2856" y="36.3569" width="85.7144" height="79.2856" filterUnits="userSpaceOnUse" color-interpolation-filters="sRGB">
<feFlood flood-opacity="0" result="BackgroundImageFix"/>
<feGaussianBlur in="BackgroundImage" stdDeviation="7.5"/>
<feComposite in2="SourceAlpha" operator="in" result="effect1_backgroundBlur_1_55084"/>
<feColorMatrix in="SourceAlpha" type="matrix" values="0 0 0 0 0 0 0 0 0 0 0 0 0 0 0 0 0 0 127 0" result="hardAlpha"/>
<feOffset dx="5" dy="5"/>
<feGaussianBlur stdDeviation="5"/>
<feColorMatrix type="matrix" values="0 0 0 0 0.669 0 0 0 0 0.72 0 0 0 0 0.716554 0 0 0 0.25 0"/>
<feBlend mode="normal" in2="effect1_backgroundBlur_1_55084" result="effect2_dropShadow_1_55084"/>
<feBlend mode="normal" in="SourceGraphic" in2="effect2_dropShadow_1_55084" result="shape"/>
</filter>
<linearGradient id="paint0_linear_1_55084" x1="71.2444" y1="4.00034" x2="-7.45184" y2="81.6438" gradientUnits="userSpaceOnUse">
<stop stop-color="#DEE4E2"/>
<stop offset="1" stop-color="#D0D0D0"/>
</linearGradient>
<linearGradient id="paint1_linear_1_55084" x1="45.1207" y1="41.0892" x2="101.199" y2="107.265" gradientUnits="userSpaceOnUse">
<stop stop-color="white" stop-opacity="0.25"/>
<stop offset="1" stop-color="#E5E5E5"/>
</linearGradient>
<linearGradient id="paint2_linear_1_55084" x1="81.7494" y1="61.9041" x2="45.1757" y2="62.7089" gradientUnits="userSpaceOnUse">
<stop stop-color="white"/>
<stop offset="1" stop-color="white" stop-opacity="0.5"/>
</linearGradient>
<linearGradient id="paint3_linear_1_55084" x1="55.7522" y1="63.2694" x2="80.1367" y2="71.592" gradientUnits="userSpaceOnUse">
<stop stop-color="white"/>
<stop offset="1" stop-color="white" stop-opacity="0"/>
</linearGradient>
</defs>
</svg>
