<svg width="200" height="200" viewBox="0 0 200 200" fill="none" xmlns="http://www.w3.org/2000/svg">
<circle cx="100" cy="100" r="99.5" fill="#E6E9EB" stroke="#D2D4D6"/>
<path d="M66.6665 141.666C66.6665 132.825 70.1784 124.347 76.4296 118.096C82.6808 111.845 91.1593 108.333 99.9998 108.333C108.84 108.333 117.319 111.845 123.57 118.096C129.821 124.347 133.333 132.825 133.333 141.666H125C125 135.036 122.366 128.677 117.678 123.988C112.989 119.3 106.63 116.666 99.9998 116.666C93.3694 116.666 87.0106 119.3 82.3222 123.988C77.6338 128.677 74.9998 135.036 74.9998 141.666H66.6665ZM99.9998 104.166C86.1873 104.166 74.9998 92.9785 74.9998 79.166C74.9998 65.3535 86.1873 54.166 99.9998 54.166C113.812 54.166 125 65.3535 125 79.166C125 92.9785 113.812 104.166 99.9998 104.166ZM99.9998 95.8327C109.208 95.8327 116.667 88.3743 116.667 79.166C116.667 69.9577 109.208 62.4993 99.9998 62.4993C90.7915 62.4993 83.3332 69.9577 83.3332 79.166C83.3332 88.3743 90.7915 95.8327 99.9998 95.8327Z" fill="#A0A1A3"/>
</svg>
