<svg width="139" height="38" viewBox="0 0 139 38" fill="none" xmlns="http://www.w3.org/2000/svg">
<path d="M11.0975 15.4086C10.2963 15.5534 9.51565 15.7927 8.77249 16.1212C8.02417 16.4577 7.31774 16.8781 6.6672 17.3739C6.04917 16.7173 5.53201 15.9752 5.13216 15.1712C4.72928 14.3645 4.44144 13.507 4.2768 12.6228C5.77692 11.5987 7.54124 11.0145 9.36494 10.9382C9.47192 11.7277 9.67057 12.5026 9.95699 13.2475C10.2434 14.0122 10.6266 14.7383 11.0975 15.4086ZM15.6154 10.9815C15.756 10.1772 15.9991 9.39348 16.3391 8.64909C16.6746 7.92034 17.094 7.23194 17.589 6.59742C16.9071 5.98144 16.1389 5.46501 15.308 5.06393C14.5092 4.67867 13.6607 4.40251 12.786 4.2431C12.2664 4.98268 11.8532 5.7894 11.5579 6.64036C11.2692 7.48378 11.1066 8.36407 11.0753 9.25357C11.8922 9.35649 12.6943 9.55213 13.4657 9.83658C14.225 10.1251 14.9466 10.5022 15.615 10.9596L15.6154 10.9815ZM28.3137 9.18874C29.1972 9.22308 30.0734 9.36085 30.9238 9.59916C31.8261 9.84943 32.6948 10.2047 33.5117 10.6574C33.4941 8.84098 33.0114 7.0583 32.1083 5.47435C30.5019 4.57744 28.6914 4.09457 26.8449 4.07051C27.3046 4.87492 27.6654 5.73041 27.9196 6.61889C28.1616 7.45632 28.3015 8.31915 28.3363 9.18915L28.3137 9.18874ZM18.8179 5.29973C19.4699 4.70622 20.1914 4.19142 20.9672 3.76624C21.7851 3.32095 22.6538 2.97292 23.5551 2.72947C22.2242 1.45516 20.5866 0.5344 18.7957 0.0534668C17.0125 0.538373 15.3829 1.45963 14.0585 2.7315C14.9599 2.97475 15.8286 3.32279 16.6464 3.76827C17.4223 4.19327 18.1439 4.70809 18.7957 5.30175L18.8179 5.29973ZM6.6454 19.7501C6.01987 20.4216 5.49544 21.1781 5.08814 21.9963C4.69691 22.783 4.41647 23.6185 4.25459 24.4798C5.00576 24.9912 5.82495 25.3982 6.68901 25.6892C7.54566 25.9729 8.4395 26.133 9.34273 26.1644C9.44725 25.36 9.64592 24.5701 9.93477 23.8105C10.2278 23.0627 10.6107 22.3522 11.0753 21.694C10.2584 21.5558 9.4625 21.3164 8.70666 20.9814C7.96661 20.6513 7.26776 20.2382 6.624 19.7501H6.6454ZM9.25715 9.18915C9.29202 8.31915 9.43192 7.45632 9.67393 6.61889C9.92828 5.73048 10.289 4.87501 10.7486 4.07051C8.90136 4.09423 7.09016 4.57711 5.48311 5.47435C4.57985 7.05838 4.09702 8.84122 4.07932 10.6578C4.8962 10.2051 5.76495 9.84984 6.6672 9.59956C7.51762 9.36126 8.39382 9.22348 9.27731 9.18915H9.25715ZM20.002 6.5962C20.5057 7.2367 20.9326 7.93236 21.2742 8.66934C21.6076 9.40123 21.8506 10.1699 21.9979 10.9588C22.6784 10.4954 23.4156 10.1185 24.192 9.83698C24.9485 9.55493 25.7354 9.35931 26.5372 9.25397C26.4596 7.45811 25.8664 5.72072 24.8264 4.24351C23.9285 4.40563 23.0577 4.68907 22.2386 5.08581C21.422 5.47956 20.6684 5.98882 20.0016 6.59742L20.002 6.5962ZM33.3146 12.6232C32.5637 12.1113 31.7445 11.7043 30.8802 11.4138C30.0237 11.1295 29.1298 10.9695 28.2265 10.9386C28.122 11.7431 27.9233 12.533 27.6344 13.2925C27.3414 14.0401 26.9585 14.7506 26.494 15.4086C27.3107 15.5472 28.1065 15.7867 28.8626 16.1212C29.6028 16.4517 30.302 16.8651 30.946 17.3533C32.1808 16.0309 33.0096 14.391 33.3364 12.6236L33.3146 12.6232ZM26.5158 21.6936C26.9865 22.3636 27.3697 23.0892 27.6562 23.8535C27.9427 24.5984 28.1413 25.3733 28.2483 26.1628C30.0716 26.0858 31.8356 25.5023 33.3364 24.4798C33.1718 23.5957 32.884 22.7381 32.4811 21.9315C32.0812 21.1274 31.5641 20.3853 30.946 19.7287C30.2956 20.2244 29.5893 20.6446 28.8412 20.981C28.0979 21.3093 27.3169 21.5486 26.5158 21.6936ZM3.7942 16.4458C3.34162 15.6405 2.98818 14.785 2.74135 13.8974C1.44185 15.1992 0.498693 16.8041 0 18.5622C0.492296 20.3185 1.42784 21.9235 2.71954 23.2279C2.96637 22.3403 3.31982 21.4848 3.77239 20.6796C4.20398 19.9155 4.72678 19.2049 5.32965 18.5631C4.72656 17.9211 4.20375 17.2102 3.77239 16.4458H3.7942ZM34.848 13.8974C34.601 14.785 34.2476 15.6404 33.7952 16.4458C33.3638 17.2099 32.841 17.9205 32.2379 18.5622C32.8408 19.2041 33.3636 19.9147 33.7952 20.6787C34.2478 21.4842 34.6013 22.34 34.848 23.2279C36.1396 21.9237 37.0751 20.319 37.5676 18.5631C37.0753 16.8068 36.1397 15.2018 34.848 13.8974ZM28.2903 27.9155C28.2556 28.7855 28.1157 29.6484 27.8735 30.4858C27.6193 31.3742 27.2586 32.2297 26.7988 33.0341C28.6454 33.0092 30.4557 32.5264 32.0626 31.6303C32.9659 30.0463 33.4487 28.2634 33.4664 26.4468C32.6497 26.8999 31.7809 27.2552 30.8786 27.5051C30.0282 27.7438 29.152 27.8816 28.2685 27.9155H28.2903ZM18.7937 31.8049C18.142 32.3987 17.4204 32.9136 16.6444 33.3384C15.8271 33.7821 14.959 34.1283 14.0585 34.3695C14.7334 35.026 15.493 35.5924 16.3177 36.0541C17.0986 36.4909 17.931 36.8317 18.7961 37.069C19.6614 36.8319 20.4937 36.4911 21.2746 36.0541C22.0993 35.5924 22.8588 35.026 23.5337 34.3695C22.6322 34.1266 21.7635 33.7786 20.9458 33.3327C20.1774 32.9065 19.4632 32.3917 18.8183 31.7992L18.7937 31.8049ZM17.612 30.5028C17.1085 29.8622 16.6816 29.1665 16.3399 28.4296C16.0069 27.6976 15.7639 26.929 15.6162 26.1401C14.9361 26.6041 14.1992 26.9815 13.4229 27.2632C12.6666 27.5458 11.8796 27.7414 11.0777 27.8462C11.1147 28.7581 11.2846 29.66 11.5821 30.5242C11.8748 31.352 12.2807 32.1367 12.7884 32.8567C13.6788 32.6924 14.5422 32.409 15.3545 32.0144C16.1709 31.6204 16.9245 31.1111 17.5915 30.5028H17.612ZM21.9756 26.143C21.8351 26.9473 21.5919 27.731 21.2519 28.4754C20.9168 29.2043 20.4974 29.8928 20.002 30.5271C20.684 31.1429 21.4521 31.6592 22.283 32.0602C23.0821 32.4449 23.9305 32.7211 24.805 32.881C25.3248 32.1416 25.7381 31.3348 26.0332 30.4837C26.3218 29.6403 26.4844 28.76 26.5158 27.8705C25.6989 27.7672 24.8968 27.5716 24.1254 27.2875C23.3661 26.9988 22.6445 26.6217 21.9761 26.1644L21.9756 26.143ZM9.27731 27.9568C8.39378 27.9229 7.51753 27.7851 6.6672 27.5464C5.76502 27.2959 4.89629 26.9407 4.07932 26.4882C4.09702 28.3048 4.57985 30.0876 5.48311 31.6716C7.08992 32.5676 8.90014 33.0505 10.7465 33.0755C10.2866 32.2711 9.92583 31.4156 9.67187 30.5271C9.43036 29.6896 9.29113 28.8268 9.25715 27.9568" fill="#5E9937"/>
<path d="M134.157 6.49482H132.736V9.98738H131.831V6.49482H130.475V5.66933H134.157V6.49482Z" fill="#5E9937"/>
<path d="M138.679 5.6058L136.869 7.89168L134.995 5.6058H134.737V9.98698H135.642V7.63796L136.74 9.03522H136.998L138.096 7.63796V9.98698H139V5.6058H138.679Z" fill="#5E9937"/>
<path d="M61.1953 8.18807C60.9424 8.04684 60.6565 7.97259 60.3656 7.97259C60.0748 7.97259 59.7889 8.04684 59.536 8.18807C59.294 8.32126 59.091 8.51341 58.9466 8.74603C58.8011 8.98599 58.7256 9.26061 58.7282 9.5399C58.7233 9.81947 58.799 10.0947 58.9466 10.3338C59.0911 10.5664 59.294 10.7585 59.536 10.8917C59.7915 11.0251 60.0764 11.0948 60.3656 11.0948C60.6549 11.0948 60.9398 11.0251 61.1953 10.8917C61.4379 10.7593 61.641 10.567 61.7848 10.3338C61.9335 10.0952 62.0092 9.81962 62.0031 9.5399C62.008 9.26032 61.9323 8.98509 61.7848 8.74603C61.6395 8.51404 61.4367 8.32206 61.1953 8.18807ZM56.5225 16.9238C56.2166 16.2282 55.7707 15.6005 55.2117 15.0784C54.6557 14.5425 53.9968 14.1206 53.2733 13.8372C52.5499 13.5539 51.7763 13.4147 50.9976 13.4279C50.3324 13.4425 49.6772 13.591 49.0726 13.8641C48.468 14.1372 47.9268 14.5293 47.4823 15.016V8.31689H45.0812V19.1541C45.0765 19.9189 45.2249 20.6772 45.5178 21.3859C45.8144 22.0811 46.2528 22.7091 46.8061 23.2313C47.3511 23.7635 47.9964 24.1862 48.7058 24.476C49.4362 24.7595 50.2144 24.9051 50.9997 24.9052C51.7784 24.9184 52.5519 24.7792 53.2754 24.4959C53.9989 24.2125 54.6578 23.7906 55.2138 23.2546C55.7839 22.7265 56.2357 22.0872 56.5402 21.3778C56.8448 20.6683 56.9954 19.9042 56.9825 19.1343C56.9906 18.3691 56.8421 17.6101 56.5458 16.9025L56.5225 16.9238ZM54.252 20.5506C54.0836 20.9807 53.8315 21.3743 53.5098 21.7096C53.1949 22.0324 52.8158 22.2881 52.396 22.4608C51.5107 22.7965 50.53 22.7965 49.6447 22.4608C49.2253 22.2875 48.8463 22.0319 48.5309 21.7096C48.2064 21.3765 47.9539 20.9822 47.7887 20.5506C47.6235 20.1037 47.5421 19.6311 47.5487 19.1557C47.5409 18.6732 47.6223 18.1934 47.7887 17.7394C48.1298 16.8765 48.805 16.1816 49.6664 15.8071C50.1103 15.6287 50.5844 15.5341 51.064 15.5281C51.5292 15.5353 51.9887 15.63 52.4177 15.8071C52.8394 15.9861 53.2186 16.2491 53.5315 16.5796C53.854 16.9059 54.1064 17.2927 54.2737 17.7169C54.4516 18.1684 54.5406 18.649 54.5358 19.1331C54.5394 19.6102 54.4504 20.0836 54.2737 20.528L54.252 20.5506ZM59.2083 24.627H61.6102V13.6602H59.2083V24.627ZM75.2573 16.8574C74.9524 16.1611 74.5065 15.5333 73.9465 15.012C73.0943 14.2185 72.0297 13.6801 70.8774 13.4596C69.7251 13.2392 68.5327 13.3459 67.4398 13.7673C66.7298 14.0561 66.0844 14.479 65.5401 15.012C64.9869 15.5342 64.5484 16.1622 64.2518 16.8574C63.6761 18.2989 63.6761 19.9009 64.2518 21.3424C64.5484 22.0376 64.9869 22.6657 65.5401 23.1878C66.0847 23.7204 66.7301 24.1433 67.4398 24.4325C68.1693 24.7191 68.9481 24.8648 69.7337 24.8617C70.5198 24.8704 71.2997 24.7245 72.0275 24.4325C72.7439 24.1437 73.3965 23.721 73.949 23.1878C74.7842 22.3764 75.3548 21.339 75.5882 20.2078C75.8217 19.0766 75.7073 17.9028 75.2598 16.8357L75.2573 16.8574ZM72.9659 20.4837C72.7981 20.9141 72.5459 21.3079 72.2237 21.6427C71.91 21.9669 71.5306 22.2229 71.11 22.3939C70.2247 22.7297 69.2439 22.7297 68.3586 22.3939C67.938 22.2229 67.5586 21.9669 67.2449 21.6427C66.9198 21.31 66.6673 20.9157 66.5027 20.4837C66.3383 20.0366 66.257 19.5642 66.2626 19.0888C66.2558 18.6064 66.3371 18.1268 66.5027 17.6726C66.6688 17.2479 66.9214 16.8609 67.2449 16.5353C67.5645 16.2029 67.9512 15.9398 68.3803 15.7628C68.8221 15.5775 69.2976 15.4826 69.7779 15.4838C70.2404 15.4843 70.698 15.5779 71.1223 15.7587C71.5467 15.9396 71.9289 16.2039 72.2454 16.5353C72.5657 16.8634 72.8178 17.2497 72.9876 17.6726C73.1645 18.1244 73.2534 18.6048 73.2498 19.0888C73.2518 19.5658 73.1629 20.0389 72.9876 20.4837" fill="#5E9937"/>
<path d="M87.6374 18.0381V24.7763H85.3026V18.3602C85.3026 16.8582 84.3638 15.8494 82.9006 15.8494C82.564 15.838 82.2287 15.8955 81.9159 16.0182C81.6031 16.1409 81.3197 16.3262 81.0836 16.5623C80.8475 16.7984 80.6639 17.0801 80.5445 17.3896C80.425 17.6991 80.3723 18.0296 80.3897 18.3602V24.7763H78.0549V8.31689H80.3897V15.0551C80.7925 14.6298 81.2838 14.2946 81.83 14.0723C82.3763 13.8501 82.9648 13.7459 83.5556 13.7669C86.0886 13.7669 87.6169 15.5265 87.6169 18.0587" fill="#5E9937"/>
<path d="M100.783 20.1412H92.5945C92.9001 21.9221 94.2739 22.9741 96.1754 22.9741C97.3617 22.9586 98.4991 22.5069 99.3634 21.708L100.477 23.2961C99.3014 24.417 97.726 25.0409 96.0881 25.0344C92.6818 25.0344 90.1926 22.588 90.1926 19.4121C90.1787 18.6726 90.3156 17.9378 90.5952 17.2511C90.8748 16.5644 91.2914 15.9397 91.8204 15.4136C92.3495 14.8876 92.9804 14.471 93.6758 14.1883C94.3713 13.9056 95.1172 13.7626 95.8698 13.7677C99.0578 13.7677 100.935 15.8707 100.935 18.7036C100.931 19.1948 100.873 19.6841 100.761 20.1629L100.783 20.1412ZM92.6384 18.3602H98.5994C98.5777 16.6863 97.3112 15.7206 95.7825 15.7206C95.0259 15.7257 94.2955 15.9934 93.7202 16.4764C93.1449 16.9593 92.7618 17.6266 92.6384 18.3602Z" fill="#5E9937"/>
<path d="M112.355 18.2527V24.7763H110.172V23.5747C109.734 24.0612 109.192 24.4449 108.583 24.6975C107.975 24.9501 107.316 25.0651 106.656 25.034C104.363 25.034 102.835 23.7892 102.835 21.9225C102.835 20.0558 104.429 18.8537 106.875 18.8537H109.997V18.1239C109.997 16.6219 109.146 15.8292 107.662 15.8292C106.179 15.8292 105.501 16.4303 104.627 17.4395L103.272 16.0837C103.786 15.3505 104.479 14.756 105.288 14.355C106.097 13.9541 106.995 13.7594 107.9 13.789C110.542 13.789 112.398 15.3127 112.398 18.2954L112.355 18.2527ZM109.996 20.6987V20.5055H107.18C105.935 20.5055 105.236 20.9346 105.236 21.8146C105.236 22.6947 106.088 23.2526 107.158 23.2526C108.708 23.2526 109.996 22.1798 109.996 20.6987Z" fill="#5E9937"/>
<path d="M121.898 14.0036V16.0422H121.177C119.43 16.0422 117.967 17.0293 117.967 19.0252V24.7763H115.632V14.0036H117.816V15.3985C118.19 14.9184 118.672 14.5307 119.225 14.2663C119.779 14.0018 120.387 13.8679 121.002 13.8752C121.304 13.8697 121.605 13.9059 121.897 13.9827" fill="#5E9937"/>
<path d="M130.522 22.8239V24.778C129.886 24.9296 129.234 25.0088 128.579 25.0139C126.133 25.0139 124.539 23.8766 124.539 21.2583V15.9996H122.749V14.004H124.539V11.1712H126.897V14.004H130.151V16H126.897V21.0643C126.897 22.5023 127.705 22.9314 129.059 22.9314C129.548 22.9224 130.037 22.8865 130.522 22.8239Z" fill="#5E9937"/>
</svg>
