<svg width="14" height="14" viewBox="0 0 14 14" fill="none" xmlns="http://www.w3.org/2000/svg">
<path d="M7.83325 7.3335H7.33325V7.8335V12.8335C7.33325 13.0157 7.18211 13.1668 6.99992 13.1668C6.81773 13.1668 6.66658 13.0157 6.66658 12.8335V7.8335V7.3335H6.16658H1.16659C0.984394 7.3335 0.833252 7.18235 0.833252 7.00016C0.833252 6.81797 0.984394 6.66683 1.16659 6.66683H6.16658H6.66658V6.16683V1.16683C6.66658 0.984639 6.81773 0.833496 6.99992 0.833496C7.18211 0.833496 7.33325 0.984639 7.33325 1.16683V6.16683V6.66683H7.83325H12.8333C13.0154 6.66683 13.1666 6.81797 13.1666 7.00016C13.1666 7.18235 13.0154 7.3335 12.8333 7.3335H7.83325Z" fill="#1E1F1F" stroke="white"/>
</svg>
