<svg width="16" height="20" viewBox="0 0 16 20" fill="none" xmlns="http://www.w3.org/2000/svg">
<path fill-rule="evenodd" clip-rule="evenodd" d="M1.5 0.5C0.671573 0.5 0 1.17157 0 2V18C0 18.8284 0.671573 19.5 1.5 19.5H14.5C15.3284 19.5 16 18.8284 16 18V6.5H11.5C10.6716 6.5 10 5.82843 10 5V0.5H1.5ZM11.9896 4.30939V1.83365C11.9896 1.56638 12.3127 1.43253 12.5017 1.62152L14.9774 4.09726C15.1664 4.28625 15.0326 4.60939 14.7653 4.60939H12.2896C12.1239 4.60939 11.9896 4.47507 11.9896 4.30939ZM5.1666 7.38072C5.35666 7.53938 5.64926 7.53938 5.83932 7.38298L5.86433 7.36258L5.87943 7.35015C7.18386 6.27596 8.03742 5.57306 8.00254 4.69696C7.98753 4.31162 7.76996 3.94215 7.41734 3.72455C6.75713 3.31428 5.94186 3.50695 5.50171 3.97389C5.06157 3.50695 4.2463 3.31655 3.58608 3.72455C3.23346 3.94215 3.01589 4.31162 3.00089 4.69696C2.96838 5.57644 3.82616 6.28137 5.13909 7.35805L5.1666 7.38072ZM4.06249 9.5C3.5102 9.5 3.06249 9.94772 3.06249 10.5C3.06249 11.0523 3.5102 11.5 4.06249 11.5H12C12.5523 11.5 13 11.0523 13 10.5C13 9.94772 12.5523 9.5 12 9.5H4.06249ZM3.06249 14.5C3.06249 13.9477 3.5102 13.5 4.06249 13.5H12C12.5523 13.5 13 13.9477 13 14.5C13 15.0523 12.5523 15.5 12 15.5H4.06249C3.5102 15.5 3.06249 15.0523 3.06249 14.5Z" fill="#89C15D"/>
</svg>
