<svg width="24" height="24" viewBox="0 0 24 24" fill="none" xmlns="http://www.w3.org/2000/svg">
<path fill-rule="evenodd" clip-rule="evenodd" d="M13.995 2.5C13.997 3.28105 14 4.5 14 4.5L13.995 7C13.995 7.82843 14.6666 8.5 15.495 8.5H19.995L13.995 2.5ZM13.995 2.5H5.5C4.67157 2.5 4 3.17157 4 4V20C4 20.8284 4.67157 21.5 5.5 21.5H18.5C19.3284 21.5 20 20.8284 20 20L19.995 8.5H18.0625V18C18.0625 18.8284 17.3909 19.5 16.5625 19.5H7.5625C6.73407 19.5 6.0625 18.8284 6.0625 18V6C6.0625 5.17157 6.73407 4.5 7.5625 4.5H14C14 4.5 13.997 3.28105 13.995 2.5ZM9.18024 9.38071C9.37149 9.53937 9.66593 9.53937 9.85719 9.38297L9.88235 9.36258L9.89755 9.35016C11.2102 8.27597 12.0691 7.57306 12.034 6.69696C12.0189 6.31161 11.8 5.94214 11.4451 5.72455C10.7808 5.31427 9.96037 5.50696 9.51745 5.97388C9.07454 5.50696 8.25414 5.31656 7.58978 5.72455C7.23494 5.94214 7.016 6.31161 7.0009 6.69696C6.96819 7.57645 7.83136 8.28137 9.15255 9.35803L9.18024 9.38071ZM8.06289 11.5C7.5106 11.5 7.06289 11.9477 7.06289 12.5C7.06289 13.0523 7.5106 13.5 8.06289 13.5H16.0629C16.6152 13.5 17.0629 13.0523 17.0629 12.5C17.0629 11.9477 16.6152 11.5 16.0629 11.5H8.06289ZM8.06289 15.5C7.5106 15.5 7.06289 15.9478 7.06289 16.5C7.06289 17.0522 7.5106 17.5 8.06289 17.5H16.0629C16.6152 17.5 17.0629 17.0522 17.0629 16.5C17.0629 15.9478 16.6152 15.5 16.0629 15.5H8.06289Z" fill="#474748"/>
</svg>
