<svg width="24" height="24" viewBox="0 0 24 24" fill="none" xmlns="http://www.w3.org/2000/svg">
<path d="M10.6602 20.4708C11.4202 21.1708 12.5902 21.1708 13.3502 20.4808L13.4502 20.3908L13.5105 20.3359C16.6336 17.4984 19.1103 15.2481 20.5651 13.0695H17.0668L15.7317 15.919C15.5984 16.2036 15.3016 16.3749 14.9884 16.348C14.6752 16.3211 14.412 16.1017 14.3291 15.7985L12.9006 10.5717L12.1701 12.5763C12.0622 12.8724 11.7806 13.0695 11.4654 13.0695L9.75015 13.1008C9.33594 13.1008 9.00015 12.765 9.00015 12.3508C9.00015 11.9365 9.33594 11.6008 9.75015 11.6008H11.025L12.2981 7.84397C12.4099 7.53712 12.7075 7.3379 13.0338 7.3514C13.3601 7.36489 13.6401 7.58799 13.7262 7.90303L15.2385 13.4362L15.9108 12.0013C16.0342 11.7378 16.299 11.5695 16.5899 11.5695H21.403C21.8272 10.6137 22.0369 9.64871 22.0002 8.63075C21.9402 6.93075 21.0702 5.30075 19.6602 4.34075C17.0202 2.53075 13.7602 3.38075 12.0002 5.44075C10.2402 3.38075 6.98015 2.54075 4.34015 4.34075C2.93015 5.30075 2.06015 6.93075 2.00015 8.63075C1.87015 12.5108 5.30015 15.6208 10.5502 20.3708L10.6602 20.4708Z" fill="#89C15D"/>
</svg>
