<svg width="24" height="24" viewBox="0 0 24 24" fill="none" xmlns="http://www.w3.org/2000/svg">
<path fill-rule="evenodd" clip-rule="evenodd" d="M18.3227 5.7209C16.4377 4.41849 14.069 5.0011 12.7626 6.54218C12.5725 6.7663 12.2936 6.89552 11.9998 6.89552C11.7059 6.89552 11.427 6.7663 11.237 6.54218C9.93262 5.00357 7.56278 4.42503 5.67475 5.72236C4.67857 6.4059 4.04624 7.58504 4.00265 8.82196C3.95561 10.245 4.54232 11.5995 5.81488 13.1893C7.10222 14.7975 8.98665 16.5209 11.369 18.6932L11.3708 18.6948L11.4746 18.7899C11.7754 19.0691 12.2384 19.0694 12.5393 18.7941L12.5425 18.7912L12.6289 18.7128L12.6307 18.7112C15.0131 16.5297 16.8992 14.8024 18.1879 13.1917C19.4623 11.5989 20.0478 10.2452 19.997 8.8236C19.9536 7.58637 19.3217 6.40644 18.3253 5.72274L18.3227 5.7209ZM19.4582 4.07455C16.9483 2.34121 13.9539 2.86226 11.9996 4.4933C10.0439 2.86274 7.05014 2.351 4.54264 4.07363M19.4582 4.07455C20.9981 5.13177 21.9311 6.90789 21.9957 8.75282C22.0705 10.8488 21.1717 12.6637 19.7496 14.4412C18.3627 16.1746 16.3795 17.9904 14.0837 20.0925L13.9796 20.1878L13.9761 20.191L13.8893 20.2697L13.8877 20.2712C12.822 21.2448 11.1828 21.2454 10.1166 20.2583L10.1139 20.2558L10.0197 20.1695L9.98973 20.1421C7.66244 18.0201 5.65427 16.189 4.25351 14.4391C2.83188 12.6632 1.93415 10.8491 2.00378 8.75459L2.00384 8.75282C2.06846 6.90757 3.00235 5.13079 4.54264 4.07363" fill="#474748"/>
<path fill-rule="evenodd" clip-rule="evenodd" d="M11.9961 8.00002C12.3282 7.99685 12.6228 8.21246 12.7202 8.52995L14.0282 12.7921L14.2887 12.0123C14.3909 11.7063 14.6774 11.5 15 11.5H20C20.4142 11.5 20.75 11.8357 20.75 12.25C20.75 12.6642 20.4142 13 20 13H15.5402L14.7093 15.4876C14.606 15.7969 14.3147 16.0039 13.9887 15.9999C13.6627 15.9959 13.3766 15.7817 13.2809 15.47L12.0284 11.3883L11.7211 12.4622C11.6288 12.7847 11.3335 13.0067 10.9981 13.0058L8.74806 13C8.33385 12.9989 7.99894 12.6622 8.00002 12.248C8.00109 11.8338 8.33775 11.4989 8.75197 11.5L10.4349 11.5044L11.2822 8.54365C11.3735 8.22436 11.664 8.00318 11.9961 8.00002Z" fill="#474748"/>
</svg>
