<svg width="24" height="24" viewBox="0 0 24 24" fill="none" xmlns="http://www.w3.org/2000/svg">
<path d="M9 3H5C3.89543 3 3 3.89543 3 5V9C3 10.1046 3.89543 11 5 11H9C10.1046 11 11 10.1046 11 9V5C11 3.89543 10.1046 3 9 3Z" fill="#89C15D"/>
<path d="M19 13H5C3.89543 13 3 13.8954 3 15V19C3 20.1046 3.89543 21 5 21H19C20.1046 21 21 20.1046 21 19V15C21 13.8954 20.1046 13 19 13Z" fill="#89C15D"/>
<path d="M15 3H19C20.1046 3 21 3.89543 21 5V9C21 10.1046 20.1046 11 19 11H15C13.8954 11 13 10.1046 13 9V5C13 3.89543 13.8954 3 15 3Z" fill="#89C15D"/>
</svg>
