<svg width="24" height="24" viewBox="0 0 24 24" fill="none" xmlns="http://www.w3.org/2000/svg">
<mask id="path-1-inside-1_1_50044" fill="white">
<path d="M19 13H5C3.89543 13 3 13.8954 3 15V19C3 20.1046 3.89543 21 5 21H19C20.1046 21 21 20.1046 21 19V15C21 13.8954 20.1046 13 19 13Z"/>
<path d="M9 3H5C3.89543 3 3 3.89543 3 5V9C3 10.1046 3.89543 11 5 11H9C10.1046 11 11 10.1046 11 9V5C11 3.89543 10.1046 3 9 3Z"/>
<path d="M19 3H15C13.8954 3 13 3.89543 13 5V9C13 10.1046 13.8954 11 15 11H19C20.1046 11 21 10.1046 21 9V5C21 3.89543 20.1046 3 19 3Z"/>
</mask>
<path d="M19 11H5V15H19V11ZM5 11C2.79086 11 1 12.7909 1 15H5V11ZM1 15V19H5V15H1ZM1 19C1 21.2091 2.79086 23 5 23V19H5H1ZM5 23H19V19H5V23ZM19 23C21.2091 23 23 21.2091 23 19H19V23ZM23 19V15H19V19H23ZM23 15C23 12.7909 21.2091 11 19 11V15H23ZM9 1H5V5H9V1ZM5 1C2.79086 1 1 2.79086 1 5H5V5V1ZM1 5V9H5V5H1ZM1 9C1 11.2091 2.79086 13 5 13V9H1ZM5 13H9V9H5V13ZM9 13C11.2091 13 13 11.2091 13 9H9V9V13ZM13 9V5H9V9H13ZM13 5C13 2.79086 11.2091 1 9 1V5V5H13ZM19 1H15V5H19V1ZM15 1C12.7909 1 11 2.79086 11 5H15V5V1ZM11 5V9H15V5H11ZM11 9C11 11.2091 12.7909 13 15 13V9H11ZM15 13H19V9H15V13ZM19 13C21.2091 13 23 11.2091 23 9H19V9V13ZM23 9V5H19V9H23ZM23 5C23 2.79086 21.2091 1 19 1V5V5H23Z" fill="#474748" mask="url(#path-1-inside-1_1_50044)"/>
</svg>
