<svg width="24" height="24" viewBox="0 0 24 24" fill="none" xmlns="http://www.w3.org/2000/svg">
<path fill-rule="evenodd" clip-rule="evenodd" d="M4 4C2.89543 4 2 4.89543 2 6V18C2 19.1046 2.89543 20 4 20H20C21.1046 20 22 19.1046 22 18V6C22 4.89543 21.1046 4 20 4H4ZM11.9711 8.04335C11.8822 7.73209 11.6036 7.51302 11.2802 7.49999C10.9567 7.48697 10.6614 7.68295 10.5478 7.98604L9.23025 12H6.75C6.33579 12 6 12.3358 6 12.75C6 13.1642 6.33579 13.5 6.75 13.5H9.75C10.0626 13.5 10.3425 13.3061 10.4522 13.0133L11.1537 10.6423L12.5289 15.956C12.6138 16.2534 12.8726 16.4682 13.1806 16.4968C13.4886 16.5254 13.7825 16.362 13.9208 16.0854L15.2135 13.5H17.25C17.6642 13.5 18 13.1642 18 12.75C18 12.3358 17.6642 12 17.25 12H14.75C14.4659 12 14.2062 12.1605 14.0792 12.4146L13.4415 13.69L11.9711 8.04335Z" fill="#89C15D"/>
</svg>
