<svg width="24" height="24" viewBox="0 0 24 24" fill="none" xmlns="http://www.w3.org/2000/svg">
<path fill-rule="evenodd" clip-rule="evenodd" d="M20 6H4V18H20V12V6ZM4 4C2.89543 4 2 4.89543 2 6V18C2 19.1046 2.89543 20 4 20H20C21.1046 20 22 19.1046 22 18V6C22 4.89543 21.1046 4 20 4H4Z" fill="#474748"/>
<path fill-rule="evenodd" clip-rule="evenodd" d="M11.2802 7.50061C11.6036 7.51363 11.8822 7.73269 11.9711 8.04393L13.4415 13.6902L14.0792 12.4149C14.2062 12.1608 14.4659 12.0003 14.75 12.0003H17.25C17.6642 12.0003 18 12.3361 18 12.7503C18 13.1644 17.6642 13.5002 17.25 13.5002H15.2135L13.9208 16.0854C13.7825 16.362 13.4886 16.5254 13.1806 16.4968C12.8726 16.4681 12.6138 16.2534 12.5289 15.9561L11.1537 10.6427L10.4522 13.0136C10.3425 13.3063 10.0626 13.5002 9.75 13.5002H6.75C6.33579 13.5002 6 13.1644 6 12.7503C6 12.3361 6.33579 12.0003 6.75 12.0003H9.23025L10.5478 7.98663C10.6614 7.68355 10.9567 7.48759 11.2802 7.50061Z" fill="#474748"/>
</svg>
