<svg width="16" height="22" viewBox="0 0 16 22" fill="none" xmlns="http://www.w3.org/2000/svg">
<path d="M10.4724 4.09302C11.5779 4.09302 12.4825 3.17209 12.4825 2.04651C12.4825 0.92093 11.5779 0 10.4724 0C9.36692 0 8.46241 0.92093 8.46241 2.04651C8.46241 3.17209 9.36692 4.09302 10.4724 4.09302ZM7.28655 16.3721L7.85941 13.814L9.96993 15.8605V20.9767C9.96993 21.5395 10.4222 22 10.9749 22C11.5277 22 11.98 21.5395 11.98 20.9767V15.2056C11.98 14.6428 11.7589 14.1107 11.3568 13.7219L9.86943 12.2791L10.4724 9.2093C11.5478 10.4781 13.1056 11.3888 14.8543 11.6753C15.4573 11.7674 16 11.2763 16 10.6521C16 10.1507 15.6382 9.73116 15.1457 9.6493C13.6181 9.39349 12.3518 8.47256 11.6785 7.26512L10.6734 5.62791C10.2714 5.01395 9.66843 4.60465 8.96492 4.60465C8.66342 4.60465 8.46241 4.70698 8.16091 4.70698L4.16096 6.42605C3.41726 6.75349 2.93485 7.49023 2.93485 8.31907V10.7442C2.93485 11.307 3.38711 11.7674 3.93986 11.7674C4.49262 11.7674 4.94487 11.307 4.94487 10.7442V8.28837L6.75389 7.57209L5.14588 15.8605L1.20623 15.0419C0.663525 14.9293 0.130869 15.2874 0.0203172 15.84V15.8809C-0.090234 16.4335 0.26152 16.9758 0.804226 17.0884L4.93482 17.9274C6.00014 18.1423 7.04535 17.4567 7.28655 16.3721V16.3721Z" fill="#3C73BD"/>
</svg>
